<?xml version="1.0" encoding="UTF-8"?>
<svg width="40px" height="40px" viewBox="0 0 40 40" version="1.1" xmlns="http://www.w3.org/2000/svg"
     xmlns:xlink="http://www.w3.org/1999/xlink">
    <path d="M20,40 C8.953125,40 0,31.046875 0,20 C0,8.953125 8.953125,0 20,0 C31.046875,0 40,8.953125 40,20 C40,31.046875 31.046875,40 20,40 L20,40 Z"
          id="Shape" fill="#CCCCCC"
          transform="translate(20.000000, 20.000000) scale(1, -1) translate(-20.000000, -20.000000) "></path>
    <path d="M29.2056379,12.144115 C29.6978254,11.65974 29.7056379,10.8706775 29.2251691,10.3745838 L29.2251691,10.3745838 C28.7407941,9.88239628 27.9517316,9.87458378 27.4556379,10.3550525 L19.7915754,17.8667713 L12.1275129,10.3589588 C11.6353254,9.87458378 10.8423566,9.88239628 10.3579816,10.37849 L10.3579816,10.37849 C9.87360665,10.8706775 9.88141915,11.6636463 10.3775129,12.1480213 L18.0064191,19.6167713 L10.3775129,27.0894275 C9.8853254,27.5738025 9.8775129,28.362865 10.3579816,28.8589588 L10.3579816,28.8589588 C10.8423566,29.3511463 11.6314191,29.3589588 12.1275129,28.87849 L19.7915754,21.3667713 L27.4556379,28.8745838 C27.9478254,29.3589588 28.7407941,29.3511463 29.2251691,28.8550525 L29.2251691,28.8550525 C29.7095441,28.362865 29.7017316,27.5698963 29.2056379,27.0855213 L21.5767316,19.6167713 L29.2056379,12.144115 L29.2056379,12.144115 Z"
          id="Path" fill="#FFFFFF"></path>

</svg>

